<svg width="50" height="50" fill="none" xmlns="http://www.w3.org/2000/svg"><path d="m24.976 43.435.849 2.501 2.584-.002-1.834 1.382L27.08 50l-2.103-1.523-2.11 1.482.512-2.643-1.816-1.391h2.582l.832-2.49Zm0-43.435.849 2.5 2.584-.002-1.834 1.382.504 2.684-2.103-1.522-2.11 1.482.512-2.644-1.816-1.39h2.582L24.976 0Zm10.51 2.793.848 2.5 2.585-.002-1.834 1.383.504 2.683-2.103-1.522-2.11 1.482.511-2.643-1.815-1.392h2.582l.832-2.489Zm-21.523 0 .848 2.5 2.585-.002-1.835 1.383.504 2.683-2.102-1.522-2.11 1.482.51-2.643-1.814-1.392h2.581l.833-2.489Zm21.523 37.709.848 2.5L38.92 43l-1.834 1.383.504 2.684-2.103-1.523-2.11 1.482.511-2.643-1.815-1.391h2.582l.832-2.49Zm-21.523 0 .848 2.5L17.396 43l-1.835 1.383.504 2.684-2.102-1.523-2.11 1.482.51-2.643-1.814-1.391h2.581l.833-2.49ZM5.913 10.99l.848 2.5 2.585-.002-1.834 1.383.503 2.684-2.102-1.523-2.11 1.482.511-2.643L2.5 13.479h2.582l.832-2.489Zm37.884 0 .848 2.5 2.585-.002-1.834 1.383.503 2.684-2.102-1.523-2.11 1.482.511-2.643-1.815-1.392h2.582l.832-2.489ZM5.913 32.67l.848 2.5 2.585-.002-1.834 1.382.503 2.684-2.102-1.523-2.11 1.483.511-2.644L2.5 35.16h2.582l.832-2.49Zm37.884 0 .848 2.5 2.585-.002-1.834 1.382.503 2.684-2.102-1.523-2.11 1.483.511-2.644-1.815-1.39h2.582l.832-2.49ZM3.414 21.748l.848 2.501 2.585-.002-1.834 1.382.503 2.684-2.102-1.523-2.11 1.482.511-2.643L0 24.238h2.582l.832-2.49Zm43.152 0 .848 2.501L50 24.247l-1.834 1.382.504 2.684-2.103-1.523-2.11 1.482.511-2.643-1.815-1.391h2.582l.832-2.49Z" fill="#F8EC26"/></svg>