<svg xmlns="http://www.w3.org/2000/svg"><symbol id="002-svg" viewBox="0 0 512 512"><path d="M494.142 80.275L426.066 9.301a30.308 30.308 0 0 0-12.637-7.857V92.13h87.733a30.119 30.119 0 0 0-7.02-11.855z"/><path d="M398.413 122.148c-8.286 0-15.011-6.715-15.011-15.011 0-.07.01-.14.02-.22-.01-.07-.02-.14-.02-.22V0h-248.52C118.23 0 104.68 13.55 104.68 30.212v69.276h149.041c28.51 0 51.716 23.194 51.716 51.716v99.269c0 28.51-23.207 51.716-51.716 51.716h-149.04v179.609c0 16.652 13.55 30.202 30.202 30.202h337.464c16.652 0 30.202-13.55 30.202-30.202v-359.65H398.413z"/><path d="M238.287 124.74H48.1c-21.315 0-38.648 17.333-38.648 38.648v74.184c0 21.305 17.333 38.648 38.648 38.648h190.187c21.305 0 38.648-17.343 38.648-38.648v-74.184c0-21.315-17.342-38.648-38.648-38.648zM102.275 232.666c-4.729 3.938-10.933 5.905-18.608 5.905-6.65 0-12.441-1.37-17.376-4.112-4.935-2.741-7.401-5.825-7.401-9.254 0-1.918.701-3.838 2.107-5.757 1.403-1.918 3.032-2.879 4.884-2.879 1.028 0 2.175.416 3.443 1.247a24.86 24.86 0 0 1 3.496 2.763c1.062 1.012 2.553 1.932 4.472 2.763a15.067 15.067 0 0 0 6.066 1.247c2.673 0 5.003-.565 6.991-1.696 1.986-1.131 2.981-2.827 2.981-5.089 0-2.262-1.115-4.249-3.341-5.962-2.229-1.712-4.936-3.272-8.122-4.678a129.921 129.921 0 0 1-9.613-4.729c-3.222-1.747-5.946-4.231-8.173-7.453-2.229-3.221-3.341-7.059-3.341-11.514 0-7.266 2.57-12.697 7.711-16.296s11.343-5.398 18.608-5.398c1.781 0 3.65.106 5.604.318 1.954.212 4.147.618 6.58 1.219 2.433.601 4.421 1.571 5.963 2.913 1.542 1.343 2.314 2.967 2.314 4.872 0 1.812-.565 3.692-1.696 5.642s-2.69 2.925-4.678 2.925c-.822 0-2.57-.65-5.243-1.953-2.673-1.301-5.621-1.953-8.842-1.953-3.427 0-5.997.601-7.711 1.799-1.714 1.2-2.57 2.657-2.57 4.37 0 1.577.806 3.017 2.416 4.318 1.61 1.303 3.615 2.416 6.015 3.341 2.398.925 5.021 2.126 7.865 3.599 2.843 1.475 5.465 3.084 7.865 4.832 2.398 1.748 4.402 4.199 6.014 7.351 1.609 3.153 2.416 6.752 2.416 10.796-.002 7.064-2.366 12.566-7.096 16.503zm69.397-62.567l-19.122 62.714c-.55 1.714-1.8 3.033-3.753 3.959-1.953.926-4.199 1.388-6.734 1.388-2.537 0-4.78-.462-6.734-1.388-1.953-.926-3.204-2.245-3.753-3.959l-19.226-62.714c-.138-.547-.205-.926-.205-1.131 0-1.781 1.113-3.323 3.341-4.626 2.227-1.301 4.539-1.953 6.94-1.953 2.946 0 4.693.995 5.243 2.981l14.394 52.742 14.29-52.742c.548-1.987 2.296-2.981 5.243-2.981 2.399 0 4.712.652 6.941 1.953 2.227 1.303 3.341 2.845 3.341 4.626 0 .206-.069.584-.206 1.131zm55.825 43.799c0 8.363-2.298 14.497-6.889 18.403-4.592 3.907-10.728 5.86-18.403 5.86-7.609 0-13.709-1.953-18.3-5.86-4.593-3.907-6.889-10.04-6.889-18.403v-27.246c0-8.361 2.278-14.496 6.837-18.403 4.558-3.907 10.503-5.86 17.838-5.86 7.538 0 13.726 1.817 18.557 5.449 4.832 3.634 7.248 8.636 7.248 15.011 0 2.948-.616 4.953-1.851 6.014-1.233 1.064-3.289 1.593-6.168 1.593-5.278 0-7.952-1.609-8.02-4.833 0-.959-.035-1.764-.103-2.416-.069-.651-.274-1.456-.616-2.417-.344-.959-.823-1.712-1.439-2.262-.616-.547-1.526-1.044-2.725-1.491-1.2-.444-2.622-.667-4.267-.667-6.168 0-9.253 3.427-9.253 10.28v27.246c.002 6.855 3.051 10.281 9.153 10.281 6.168 0 9.253-3.427 9.253-10.28v-3.496h-6.066c-1.508 0-2.69-.599-3.547-1.799-.858-1.199-1.285-2.656-1.285-4.369 0-1.576.444-2.998 1.336-4.267.891-1.268 2.056-1.902 3.496-1.902h17.272c1.507 0 2.69.498 3.548 1.491.856.995 1.285 2.177 1.285 3.547v10.796z"/></symbol><symbol id="arrow" viewBox="0 0 24 24"><path d="M8 5l8 7-8 6.5" stroke="#333"/></symbol><symbol id="bag" viewBox="0 0 24 24"><path d="M5.255 10.566a2.5 2.5 0 0 1 2.492-2.697h8.506a2.5 2.5 0 0 1 2.492 2.697l-.525 6.632a2.5 2.5 0 0 1-2.492 2.302H8.272a2.5 2.5 0 0 1-2.492-2.302l-.525-6.632z" stroke="#333"/><path d="M8 12.5S7.783 4 12 4s4 8.5 4 8.5" stroke="#333"/></symbol><symbol id="clock" viewBox="0 0 20 20"><circle cx="10" cy="10" r="7" fill="#fff" stroke="#333"/><path d="M9.555 5.5v5.206L13.5 13" stroke="#333"/></symbol><symbol id="close" viewBox="0 0 16 16"><path d="M3.7 12.066l8.35-8.183M12.252 12.066l-8.35-8.183" stroke="#C4C4C4"/></symbol><symbol id="copy" viewBox="0 0 24 24"><rect x="4.5" y="6.5" width="13" height="13" rx="1.5" stroke="#fff"/><path d="M6.338 6.631V6.5a2 2 0 0 1 2-2H17.5a2 2 0 0 1 2 2v9.438a1.61 1.61 0 0 1-2 1.562" stroke="#fff"/></symbol><symbol id="desc" viewBox="0 0 20 20"><circle cx="10" cy="10" r="7" stroke="#333"/><path d="M6 8c.25 0 2.758-1.5 2.758-1.5H11.25S13.75 8 14 8" stroke="#333"/><path d="M6.016 7.393v1.785l1.745.298v4.463M13.984 7.393v1.785l-1.745.298.009 4.463M7.511 13.438h4.986M8.509 6.5s.498 1.785 1.495 1.785c.997 0 1.496-1.785 1.496-1.785" stroke="#333"/></symbol><symbol id="favorite" viewBox="0 0 24 24"><path d="M11.9 7.095c-1.2-5.616-10.491-1.191-6.14 4.507 4.352 5.698 6.64 7.889 6.64 7.889" stroke="#333"/><path d="M11.894 7.095c1.2-5.616 10.836-1.191 6.485 4.507C14.027 17.3 11.7 19.5 11.7 19.5" stroke="#333"/><path d="M11.391 6.708h1.013l-.02.533h-.993v-.533z" fill="#333"/></symbol><symbol id="menu" viewBox="0 0 24 24"><path stroke="#333" d="M3 5.5h18M3 17.5h18M3 11.5h18"/></symbol><symbol id="pay" viewBox="0 0 20 20"><rect x="3.5" y="5.5" width="13" height="9" rx=".5" stroke="#333"/><path fill="#333" d="M4 8h12v2H4z"/></symbol><symbol id="star" viewBox="0 0 12 12"><path d="M6 3.565l.485 1.145.235.555.6.05 1.235.105-.94.815-.455.395.135.59.28 1.205-1.06-.64L6 7.465l-.515.31-1.06.64.28-1.205.135-.59-.455-.395-.94-.815 1.235-.105.6-.05.235-.555L6 3.565zM6 1L4.595 4.315 1 4.62l2.73 2.365-.82 3.515L6 8.635 9.09 10.5l-.82-3.515L11 4.62l-3.595-.305L6 1z" fill="#333"/></symbol><symbol id="user" viewBox="0 0 24 24"><circle cx="12.46" cy="8.189" r="3.689" stroke="#333"/><path d="M4.5 19.338h15M4.5 19.84c0-3.405 4.347-5.927 7.714-5.838 3.219.085 7.286 2.433 7.286 5.838" stroke="#333"/></symbol></svg>