<svg width="1200" height="306" viewBox="0 0 1200 306" fill="none" xmlns="http://www.w3.org/2000/svg">
<g clip-path="url(#clip0_1_165)">
<rect width="1200" height="306" rx="40" fill="#93BBEA"/>
<path d="M1090.42 204.092C1088.06 192.166 1083.76 181.073 1082.55 170.039C1082.29 167.657 1080.4 165.657 1078.3 165.822C1076.19 165.987 1071.62 169.01 1070.45 178.318C1069.59 185.056 1075.1 193.893 1072.28 196.733C1069.46 199.573 1092.5 205.4 1090.42 204.092Z" fill="#F5C1C7"/>
<path d="M1016.82 114.857C1011.66 116.461 1007.64 139.661 1006.04 146.543C996.284 188.554 982.922 237.239 981.736 242.344C980.253 248.726 982.723 249.86 985.719 251.677C988.714 253.494 1048.25 267.886 1053.41 266.282C1057.53 264.998 1060.02 255.486 1060.02 255.486C1069.62 215.121 1086.28 141.866 1086.55 138.343C1086.89 133.938 1087.51 131.279 1085.16 129.612C1082.81 127.946 1075.46 126.239 1071.79 125.385C1055.19 121.341 1024.93 112.336 1016.82 114.857Z" fill="#5992E8"/>
<path opacity="0.4" d="M1048.02 157.869C1049.95 159.829 1050.71 161.67 1050.6 164.419C1050.41 169.609 1043.38 171.946 1038.2 171.635C1037.85 171.614 1037.51 171.575 1037.18 171.515C1034.62 171.035 1031.97 165.881 1032.89 161.855C1034.17 156.2 1043.17 154.009 1047.72 157.605C1047.83 157.689 1047.92 157.777 1048.02 157.869Z" fill="#FAF8F9"/>
<path opacity="0.4" d="M1044.89 151.739C1043.86 153.14 1042.01 154.241 1040.88 154.536C1040.46 154.644 1040.06 154.462 1039.73 154.19C1039.52 154.012 1039.33 153.792 1039.3 153.513C1039.27 153.026 1039.4 152.185 1040.05 151.011C1040.65 149.929 1042.45 149.097 1044.09 148.564C1045.31 148.167 1046.19 148.986 1045.72 150.177C1045.5 150.731 1045.22 151.294 1044.89 151.739Z" fill="#FAF8F9"/>
<circle opacity="0.4" cx="1072.04" cy="140.377" r="3.62998" transform="rotate(37.0464 1072.04 140.377)" fill="#FAF8F9"/>
<path d="M1112.17 245.614C1090.86 226.995 1094.29 213.976 1090.46 203.954C1088.22 198.077 1077.98 188.115 1075.94 196.991C1075 201.093 1063.59 194.875 1061.51 193.567C1055.3 189.661 1048.1 183.544 1042.91 179.628C1038.46 176.27 1033.19 171.117 1032.43 177.119C1031.66 183.121 1043.7 196.489 1047.06 200.947C1050.42 205.406 1053.78 209.865 1048.44 211.327C1043.1 212.79 1022.17 192.039 1015.34 189.772C1008.51 187.505 1005.04 189.696 1017.65 204.45C1030.25 219.203 1032.01 226.582 1030.88 227.718C1029.76 228.854 1028.63 229.99 1015.26 221.238C1001.89 212.486 992.631 210.058 990.941 211.762C989.251 213.466 990.466 215.525 991.957 217.276C996.446 222.552 1015.88 237.62 1017.27 240.133C1018.3 241.97 1016.31 242.575 1014.93 242.498C1002.02 241.781 988.717 238.85 986.937 239.338C985.156 239.825 983.557 242.745 986.826 245.988C988.982 248.127 998.48 253.416 1003.28 255.549C1014.88 262.166 1062.78 285.632 1066.75 286.863C1071.7 288.401 1062.55 283.877 1067.68 280.931C1077.58 275.255 1082.77 269.697 1089.63 261.701C1095.59 254.756 1133.49 264.234 1112.17 245.614Z" fill="#F5C1C7"/>
<path d="M1160.32 269.662C1141.17 260.57 1105.13 239.563 1099.78 231.302C1099.71 231.174 1099.63 231.047 1099.55 230.919C1099.62 231.044 1099.7 231.171 1099.78 231.302C1111.56 251.628 1047.57 273.645 1065.56 285.261C1083.66 296.949 1221.93 363.054 1225.1 345.007C1226.95 334.416 1249.31 340.272 1252.01 330.006C1255.2 317.883 1280.77 315.857 1275.63 308.593C1270.49 301.328 1179.79 278.898 1160.32 269.662Z" fill="#F5C1C7"/>
<path d="M104.795 167.218C98.9136 183.327 94.9879 202.653 105.348 204.512C115.707 206.37 114.322 183.244 126.055 177.56C137.789 171.877 156.942 183.634 163.497 184.997C170.052 186.361 177.308 188.733 176.7 171.822C176.092 154.911 170.476 100.486 169.043 86.3156C167.61 72.1447 156.281 71.4612 145.517 78.277C134.752 85.0928 54.3434 142.832 47.8639 150.576C41.3845 158.32 41.6582 161.158 47.8219 162.263C53.9857 163.369 73.1823 169.219 83.6415 161.598C99.6497 149.934 133.657 108.923 139.136 110.193C144.488 111.433 109.372 154.682 104.795 167.218Z" fill="#5992E8"/>
<path d="M8.76829 211.438C4.16404 214.132 -0.609453 217.986 1.50506 220.486C3.61958 222.986 7.87372 217.168 11.8132 218.133C15.7527 219.097 18.012 225.714 19.3127 227.34C20.6135 228.967 21.8822 230.975 25.0902 226.801C28.2982 222.627 37.745 208.468 40.2118 204.787C42.6787 201.107 40.0987 198.696 36.1669 198.195C32.2351 197.694 1.51174 195.587 -1.57701 196.159C-4.66577 196.73 -5.16302 197.464 -3.90484 198.952C-2.64667 200.439 0.794284 205.648 4.81259 205.896C10.9627 206.274 27.2467 203.189 28.3082 204.58C29.3451 205.938 12.3515 209.34 8.76829 211.438Z" fill="#5992E8"/>
<path d="M247.169 57.4142C247.629 60.4757 248.677 63.8781 250.48 63.2772C252.282 62.6763 250.064 59.1307 251.432 57.2157C252.801 55.3007 256.852 55.5086 258.009 55.1582C259.166 54.8077 260.521 54.5565 258.963 51.9287C257.405 49.3009 251.811 41.1604 250.359 39.0382C248.907 36.9161 247.052 37.787 245.935 39.7977C244.818 41.8084 237.064 57.9098 236.707 59.6972C236.349 61.4847 236.638 61.9108 237.71 61.5533C238.783 61.1957 242.331 60.4638 243.33 58.3518C244.859 55.1194 246.704 45.6801 247.682 45.4077C248.638 45.1417 246.81 55.0316 247.169 57.4142Z" fill="#5992E8"/>
<path d="M338.719 96H349.219V62.04H364.459V96H374.959V53.1H338.719V96ZM380.549 80.64C380.549 90.3 388.349 96.72 398.069 96.72C407.789 96.72 415.589 90.3 415.589 80.64C415.589 70.92 407.789 64.38 398.009 64.38C388.349 64.38 380.549 70.92 380.549 80.64ZM391.049 80.64C391.049 75.96 394.289 73.02 398.069 73.02C401.849 73.02 405.089 75.96 405.089 80.64C405.089 85.26 401.849 88.08 398.069 88.08C394.289 88.08 391.049 85.26 391.049 80.64ZM431.599 87.78C433.759 83.64 434.359 79.14 434.359 74.46V73.32H439.699V87.78H431.599ZM417.559 87.78V103.2H427.159V96H445.279V103.2H454.519V87.78H450.079V65.1H424.579V72.54C424.579 78.78 423.439 84.3 421.399 87.78H417.559ZM470.681 87.78C472.841 83.64 473.441 79.14 473.441 74.46V73.32H478.781V87.78H470.681ZM456.641 87.78V103.2H466.241V96H484.361V103.2H493.601V87.78H489.161V65.1H463.661V72.54C463.661 78.78 462.521 84.3 460.481 87.78H456.641ZM496.271 80.52C496.271 88.74 502.211 96.72 513.251 96.72C517.991 96.72 523.091 95.1 526.451 92.22L522.611 84.96C520.091 86.64 517.151 88.08 514.091 88.08C510.791 88.08 507.671 86.34 506.891 82.56H526.391C526.511 81.48 526.631 80.4 526.631 79.32C526.631 70.74 521.471 64.38 512.351 64.38C502.391 64.38 496.271 71.46 496.271 80.52ZM507.131 76.62C507.671 74.16 509.111 72 512.111 72C514.751 72 516.371 74.1 516.371 76.62H507.131ZM532.054 108H542.434V96.42C542.434 94.86 542.314 93.78 542.314 93.78H542.434C544.654 95.7 547.414 96.72 550.294 96.72C558.514 96.72 564.694 90.36 564.694 80.58C564.694 70.98 559.174 64.38 550.774 64.38C547.054 64.38 543.514 65.82 541.414 68.64H541.294C541.294 68.64 541.414 67.68 541.414 66.66V65.1H532.054V108ZM542.134 80.76C542.134 75.42 545.074 73.14 548.194 73.14C551.794 73.14 554.254 76.14 554.254 80.76C554.254 85.5 551.434 88.14 548.194 88.14C544.114 88.14 542.134 84.48 542.134 80.76ZM566.26 96H577.48L583 84.78H586.06V96H595.72V84.78H598.84L604.36 96H615.58L606.88 80.04V79.92L614.92 65.1H604.24L598.54 76.08H595.72V65.1H586.06V76.08H583.3L577.6 65.1H566.92L574.96 79.92V80.04L566.26 96ZM619.476 96H629.856V84.66H633.096L639.636 96H651.456L641.136 79.92V79.8L650.196 65.1H638.916L632.796 75.96H629.856V65.1H619.476V96ZM652.471 87.3C652.471 92.64 656.611 96.72 662.551 96.72C666.091 96.72 669.691 95.1 671.731 92.22H671.851C671.851 92.22 671.731 93.12 671.731 94.14V96H681.211V76.98C681.211 69.12 675.931 64.38 667.411 64.38C662.371 64.38 656.971 66.36 654.331 68.4L657.931 75.72C660.391 74.1 663.451 72.78 666.451 72.78C668.731 72.78 670.831 73.62 670.831 76.2V76.74H669.931C662.311 76.74 652.471 79.02 652.471 87.3ZM662.731 86.34C662.731 83.52 666.811 82.68 669.991 82.68H670.951V83.52C670.951 86.04 668.671 88.98 665.671 88.98C663.751 88.98 662.731 87.78 662.731 86.34ZM700.216 92.16C703.576 95.16 708.556 96.72 713.116 96.72C720.436 96.72 725.896 93.42 725.896 86.88C725.896 83.28 723.436 81.12 721.096 80.04V79.92C722.956 78.9 724.936 76.8 724.936 72.96C724.936 67.62 719.896 64.38 713.536 64.38C707.896 64.38 703.936 65.88 701.056 67.86L704.056 74.28C707.296 72.36 709.696 71.94 711.376 71.94C714.016 71.94 714.616 73.08 714.616 74.4C714.616 76.32 713.116 76.8 711.496 76.8H708.376V83.64H712.156C714.976 83.64 715.516 84.72 715.516 86.22C715.516 87.66 714.676 88.92 711.796 88.92C709.336 88.92 706.276 87.42 704.356 85.68L700.216 92.16ZM742.556 87.78C744.716 83.64 745.316 79.14 745.316 74.46V73.32H750.656V87.78H742.556ZM728.516 87.78V103.2H738.116V96H756.236V103.2H765.476V87.78H761.036V65.1H735.536V72.54C735.536 78.78 734.396 84.3 732.356 87.78H728.516ZM768.146 80.52C768.146 88.74 774.086 96.72 785.126 96.72C789.866 96.72 794.966 95.1 798.326 92.22L794.486 84.96C791.966 86.64 789.026 88.08 785.966 88.08C782.666 88.08 779.546 86.34 778.766 82.56H798.266C798.386 81.48 798.506 80.4 798.506 79.32C798.506 70.74 793.346 64.38 784.226 64.38C774.266 64.38 768.146 71.46 768.146 80.52ZM779.006 76.62C779.546 74.16 780.986 72 783.986 72C786.626 72 788.246 74.1 788.246 76.62H779.006ZM802.189 80.52C802.189 89.04 808.369 96.72 819.409 96.72C824.569 96.72 829.609 94.74 832.669 91.62L828.889 84.36C826.669 86.28 823.429 88.08 820.429 88.08C815.209 88.08 812.689 84.06 812.689 80.4C812.689 76.74 815.149 73.02 820.069 73.02C822.769 73.02 825.529 74.28 827.329 76.02L831.709 69.06C828.649 65.76 823.729 64.38 819.409 64.38C808.309 64.38 802.189 72.24 802.189 80.52ZM837.035 96H852.455C861.095 96 864.695 91.74 864.695 85.44C864.695 79.2 861.095 74.76 852.455 74.76H847.415V65.1H837.035V96ZM847.415 89.22V81.48H850.355C852.995 81.48 854.315 83.22 854.315 85.38C854.315 87.54 852.995 89.22 850.535 89.22H847.415Z" fill="white"/>
<path d="M376.58 134H378.263L378.841 126.435C378.909 125.704 378.875 124.633 378.875 124.633H378.909C378.909 124.633 379.283 125.789 379.555 126.435L381.935 131.841H383.431L385.828 126.435C386.1 125.772 386.474 124.667 386.474 124.667H386.508C386.508 124.667 386.474 125.704 386.542 126.435L387.12 134H388.786L387.817 121.998H386.066L383.295 128.492C383.023 129.155 382.7 130.107 382.7 130.107H382.666C382.666 130.107 382.36 129.155 382.088 128.492L379.317 121.998H377.566L376.58 134ZM398.895 134H400.544V125.398H398.895V134ZM391.109 134H394.424C396.583 134 397.569 132.895 397.569 131.28C397.569 129.325 396.226 128.509 394.441 128.509H392.758V125.398H391.109V134ZM392.758 132.81V129.699H394.186C395.376 129.699 395.903 130.345 395.903 131.263C395.903 132.164 395.393 132.81 394.203 132.81H392.758ZM406.411 134.085C408.944 133.949 409.93 131.943 409.93 128.05V126.758H412.463V134H414.112V125.398H408.349V128.05C408.349 131.161 407.669 132.419 406.411 132.606V134.085ZM416.659 134H418.308V130.362H419.872C420.178 132.606 421.997 134.204 424.275 134.204C426.757 134.204 428.746 132.3 428.746 129.682C428.746 127.081 426.757 125.194 424.258 125.194C421.997 125.194 420.178 126.775 419.872 129.002H418.308V125.398H416.659V134ZM421.47 129.682C421.47 127.897 422.711 126.622 424.275 126.622C425.822 126.622 427.063 127.897 427.063 129.682C427.063 131.484 425.822 132.776 424.275 132.776C422.711 132.776 421.47 131.484 421.47 129.682ZM430.363 129.053C430.363 132.028 431.672 134.204 434.579 134.204C437.01 134.204 438.642 132.504 438.642 130.124C438.642 127.693 437.146 126.163 434.987 126.163C433.848 126.163 432.709 126.537 431.944 127.693H431.91C432.029 126.044 432.845 125.041 434.562 124.259L437.86 122.882L437.316 121.522L434.239 122.848C431.247 124.106 430.363 125.976 430.363 129.053ZM432.08 130.124C432.08 128.611 433.117 127.472 434.579 127.472C435.871 127.472 436.976 128.475 436.976 130.158C436.976 131.824 435.871 132.81 434.511 132.81C433.185 132.81 432.08 131.824 432.08 130.124ZM440.698 134H442.279L446.002 128.866C446.274 128.458 446.699 127.88 446.75 127.727H446.784C446.784 127.863 446.733 128.458 446.733 128.866V134H448.331V125.398H446.733L443.027 130.532C442.738 130.94 442.33 131.535 442.262 131.688H442.228C442.245 131.603 442.279 130.991 442.279 130.532V125.398H440.698V134ZM450.501 134H452.099L452.473 128.883C452.507 128.373 452.456 127.404 452.456 127.404H452.49C452.49 127.404 452.762 128.05 453.034 128.679L455.074 132.963H456.485L458.525 128.662C458.848 127.999 459.069 127.404 459.069 127.404H459.103C459.103 127.404 459.069 128.373 459.086 128.883L459.46 134H461.058L460.31 125.398H458.508L456.264 130.26C456.043 130.787 455.788 131.416 455.788 131.416H455.754C455.754 131.416 455.516 130.77 455.278 130.26L453.085 125.398H451.249L450.501 134ZM466.965 129.682C466.965 132.3 469.039 134.204 471.606 134.204C474.156 134.204 476.23 132.3 476.23 129.682C476.23 127.081 474.156 125.194 471.589 125.194C469.039 125.194 466.965 127.081 466.965 129.682ZM468.648 129.682C468.648 127.897 469.974 126.622 471.606 126.622C473.221 126.622 474.564 127.897 474.564 129.682C474.564 131.484 473.221 132.776 471.606 132.776C469.974 132.776 468.648 131.484 468.648 129.682ZM477.844 129.053C477.844 132.028 479.153 134.204 482.06 134.204C484.491 134.204 486.123 132.504 486.123 130.124C486.123 127.693 484.627 126.163 482.468 126.163C481.329 126.163 480.19 126.537 479.425 127.693H479.391C479.51 126.044 480.326 125.041 482.043 124.259L485.341 122.882L484.797 121.522L481.72 122.848C478.728 124.106 477.844 125.976 477.844 129.053ZM479.561 130.124C479.561 128.611 480.598 127.472 482.06 127.472C483.352 127.472 484.457 128.475 484.457 130.158C484.457 131.824 483.352 132.81 481.992 132.81C480.666 132.81 479.561 131.824 479.561 130.124ZM488.179 134H499.008V136.04H500.521V132.572H499.297V125.398H497.716V132.572H494.537V125.398H492.939V132.572H489.76V125.398H488.179V134ZM501.56 131.654C501.56 133.269 502.937 134.204 504.433 134.204C505.708 134.204 506.762 133.439 507.255 132.453H507.289C507.289 132.453 507.238 132.742 507.238 133.133V134H508.785V128.56C508.785 126.384 507.544 125.194 505.385 125.194C504.178 125.194 502.869 125.636 502.172 126.214L502.835 127.421C503.532 126.928 504.399 126.588 505.249 126.588C506.32 126.588 507.136 127.064 507.136 128.475V128.645H506.694C504.909 128.645 501.56 128.951 501.56 131.654ZM503.209 131.518C503.209 129.937 505.487 129.835 506.711 129.835H507.136V130.158C507.136 131.433 506.269 132.895 504.824 132.895C503.753 132.895 503.209 132.198 503.209 131.518ZM513.18 134H514.812V126.809H517.821V125.398H510.188V126.809H513.18V134ZM519.44 134H522.789C524.965 134 525.951 132.895 525.951 131.28C525.951 129.325 524.608 128.509 522.823 128.509H521.089V125.398H519.44V134ZM521.089 132.81V129.699H522.568C523.758 129.699 524.268 130.345 524.268 131.263C524.268 132.164 523.758 132.81 522.568 132.81H521.089ZM527.163 129.699C527.163 132.283 529.05 134.204 531.77 134.204C533.113 134.204 534.422 133.66 535.204 132.827L534.541 131.62C533.878 132.317 532.841 132.776 531.889 132.776C530.104 132.776 528.846 131.433 528.846 129.682C528.846 127.931 530.104 126.622 531.838 126.622C532.739 126.622 533.64 127.03 534.218 127.608L535 126.452C534.184 125.585 532.909 125.194 531.77 125.194C529.067 125.194 527.163 127.149 527.163 129.699ZM536.12 134H537.939L540.047 130.889H541.492V134H543.141V125.398H539.707C537.888 125.398 536.63 126.333 536.63 128.101C536.63 129.41 537.514 130.328 538.5 130.6V130.617C538.5 130.617 538.296 130.838 538.109 131.144L536.12 134ZM540.064 129.682C539.061 129.682 538.296 129.155 538.296 128.084C538.296 126.979 539.01 126.537 540.115 126.537H541.492V129.682H540.064ZM549.937 134H551.518L555.241 128.866C555.513 128.458 555.938 127.88 555.989 127.727H556.023C556.023 127.863 555.972 128.458 555.972 128.866V134H557.57V125.398H555.972L552.266 130.532C551.977 130.94 551.569 131.535 551.501 131.688H551.467C551.484 131.603 551.518 130.991 551.518 130.532V125.398H549.937V134ZM564.347 137.4H565.996V133.49C565.996 133.048 565.928 132.742 565.928 132.742H565.962C566.557 133.66 567.543 134.204 568.631 134.204C570.892 134.204 572.524 132.436 572.524 129.699C572.524 127.03 571.079 125.194 568.75 125.194C567.492 125.194 566.404 125.772 565.86 126.809H565.826C565.826 126.809 565.877 126.52 565.877 126.163V125.398H564.347V137.4ZM565.945 129.733C565.945 127.557 567.135 126.639 568.427 126.639C569.855 126.639 570.858 127.846 570.858 129.716C570.858 131.671 569.736 132.776 568.376 132.776C566.795 132.776 565.945 131.263 565.945 129.733ZM573.843 131.654C573.843 133.269 575.22 134.204 576.716 134.204C577.991 134.204 579.045 133.439 579.538 132.453H579.572C579.572 132.453 579.521 132.742 579.521 133.133V134H581.068V128.56C581.068 126.384 579.827 125.194 577.668 125.194C576.461 125.194 575.152 125.636 574.455 126.214L575.118 127.421C575.815 126.928 576.682 126.588 577.532 126.588C578.603 126.588 579.419 127.064 579.419 128.475V128.645H578.977C577.192 128.645 573.843 128.951 573.843 131.654ZM575.492 131.518C575.492 129.937 577.77 129.835 578.994 129.835H579.419V130.158C579.419 131.433 578.552 132.895 577.107 132.895C576.036 132.895 575.492 132.198 575.492 131.518ZM585.188 132.64C586.276 130.94 586.412 128.492 586.412 127.2V126.741H588.996V132.64H585.188ZM582.434 132.64V136.04H583.981V134H590.356V136.04H591.869V132.64H590.645V125.398H584.831V126.979C584.831 128.305 584.695 130.991 583.488 132.64H582.434ZM601.385 134H603.034V125.398H601.385V134ZM593.599 134H596.914C599.073 134 600.059 132.895 600.059 131.28C600.059 129.325 598.716 128.509 596.931 128.509H595.248V125.398H593.599V134ZM595.248 132.81V129.699H596.676C597.866 129.699 598.393 130.345 598.393 131.263C598.393 132.164 597.883 132.81 596.693 132.81H595.248ZM609.835 134H613.507C615.377 134 616.669 133.15 616.669 131.552C616.669 130.6 616.108 129.767 615.037 129.512V129.495C615.819 129.155 616.261 128.441 616.261 127.608C616.261 126.163 615.122 125.398 613.388 125.398H609.835V134ZM611.484 129.036V126.537H613.048C614.085 126.537 614.578 126.945 614.578 127.727C614.578 128.526 614.085 129.036 613.099 129.036H611.484ZM611.484 132.844V130.141H613.235C614.374 130.141 615.003 130.651 615.003 131.501C615.003 132.3 614.442 132.844 613.252 132.844H611.484ZM618.106 129.699C618.106 132.283 619.993 134.204 622.713 134.204C624.056 134.204 625.365 133.66 626.147 132.827L625.484 131.62C624.821 132.317 623.784 132.776 622.832 132.776C621.047 132.776 619.789 131.433 619.789 129.682C619.789 127.931 621.047 126.622 622.781 126.622C623.682 126.622 624.583 127.03 625.161 127.608L625.943 126.452C625.127 125.585 623.852 125.194 622.713 125.194C620.01 125.194 618.106 127.149 618.106 129.699ZM627.171 129.699C627.171 132.249 629.041 134.204 631.744 134.204C632.934 134.204 634.243 133.745 635.076 132.98L634.379 131.773C633.699 132.385 632.764 132.776 631.846 132.776C630.299 132.776 628.973 131.773 628.888 129.92H635.144C635.178 129.682 635.212 129.444 635.212 129.223C635.212 127.013 633.92 125.194 631.489 125.194C629.041 125.194 627.171 126.962 627.171 129.699ZM628.939 128.73C629.177 127.302 630.18 126.469 631.455 126.469C632.577 126.469 633.495 127.251 633.546 128.73H628.939ZM636.837 134H638.435L638.809 128.883C638.843 128.373 638.792 127.404 638.792 127.404H638.826C638.826 127.404 639.098 128.05 639.37 128.679L641.41 132.963H642.821L644.861 128.662C645.184 127.999 645.405 127.404 645.405 127.404H645.439C645.439 127.404 645.405 128.373 645.422 128.883L645.796 134H647.394L646.646 125.398H644.844L642.6 130.26C642.379 130.787 642.124 131.416 642.124 131.416H642.09C642.09 131.416 641.852 130.77 641.614 130.26L639.421 125.398H637.585L636.837 134ZM653.301 129.682C653.301 132.3 655.375 134.204 657.942 134.204C660.492 134.204 662.566 132.3 662.566 129.682C662.566 127.081 660.492 125.194 657.925 125.194C655.375 125.194 653.301 127.081 653.301 129.682ZM654.984 129.682C654.984 127.897 656.31 126.622 657.942 126.622C659.557 126.622 660.9 127.897 660.9 129.682C660.9 131.484 659.557 132.776 657.942 132.776C656.31 132.776 654.984 131.484 654.984 129.682ZM666.346 134H667.978V126.809H670.987V125.398H663.354V126.809H666.346V134ZM671.773 132.946C672.487 133.626 673.609 134.204 674.935 134.204C676.703 134.204 678.233 133.303 678.233 131.535C678.233 130.43 677.553 129.784 676.686 129.512V129.478C677.366 129.189 677.944 128.594 677.944 127.523C677.944 125.993 676.669 125.194 675.037 125.194C673.677 125.194 672.708 125.636 672.045 126.129L672.657 127.234C673.32 126.741 674 126.486 674.748 126.486C675.7 126.486 676.278 126.928 676.278 127.727C676.278 128.594 675.615 128.968 674.646 128.968H673.745V130.158H674.799C676.006 130.158 676.567 130.634 676.567 131.467C676.567 132.402 675.768 132.878 674.782 132.878C673.745 132.878 672.929 132.266 672.538 131.858L671.773 132.946ZM688.012 134H689.661V125.398H688.012V134ZM680.226 134H683.541C685.7 134 686.686 132.895 686.686 131.28C686.686 129.325 685.343 128.509 683.558 128.509H681.875V125.398H680.226V134ZM681.875 132.81V129.699H683.303C684.493 129.699 685.02 130.345 685.02 131.263C685.02 132.164 684.51 132.81 683.32 132.81H681.875ZM692.212 134H695.884C697.754 134 699.046 133.15 699.046 131.552C699.046 130.6 698.485 129.767 697.414 129.512V129.495C698.196 129.155 698.638 128.441 698.638 127.608C698.638 126.163 697.499 125.398 695.765 125.398H692.212V134ZM693.861 129.036V126.537H695.425C696.462 126.537 696.955 126.945 696.955 127.727C696.955 128.526 696.462 129.036 695.476 129.036H693.861ZM693.861 132.844V130.141H695.612C696.751 130.141 697.38 130.651 697.38 131.501C697.38 132.3 696.819 132.844 695.629 132.844H693.861ZM700.33 131.654C700.33 133.269 701.707 134.204 703.203 134.204C704.478 134.204 705.532 133.439 706.025 132.453H706.059C706.059 132.453 706.008 132.742 706.008 133.133V134H707.555V128.56C707.555 126.384 706.314 125.194 704.155 125.194C702.948 125.194 701.639 125.636 700.942 126.214L701.605 127.421C702.302 126.928 703.169 126.588 704.019 126.588C705.09 126.588 705.906 127.064 705.906 128.475V128.645H705.464C703.679 128.645 700.33 128.951 700.33 131.654ZM701.979 131.518C701.979 129.937 704.257 129.835 705.481 129.835H705.906V130.158C705.906 131.433 705.039 132.895 703.594 132.895C702.523 132.895 701.979 132.198 701.979 131.518ZM709.635 134H711.233L711.607 128.883C711.641 128.373 711.59 127.404 711.59 127.404H711.624C711.624 127.404 711.896 128.05 712.168 128.679L714.208 132.963H715.619L717.659 128.662C717.982 127.999 718.203 127.404 718.203 127.404H718.237C718.237 127.404 718.203 128.373 718.22 128.883L718.594 134H720.192L719.444 125.398H717.642L715.398 130.26C715.177 130.787 714.922 131.416 714.922 131.416H714.888C714.888 131.416 714.65 130.77 714.412 130.26L712.219 125.398H710.383L709.635 134ZM721.73 135.717H723.039L724.518 132.215H722.784L721.73 135.717ZM731.292 134H734.964C736.834 134 738.126 133.15 738.126 131.552C738.126 130.6 737.565 129.767 736.494 129.512V129.495C737.276 129.155 737.718 128.441 737.718 127.608C737.718 126.163 736.579 125.398 734.845 125.398H731.292V134ZM732.941 129.036V126.537H734.505C735.542 126.537 736.035 126.945 736.035 127.727C736.035 128.526 735.542 129.036 734.556 129.036H732.941ZM732.941 132.844V130.141H734.692C735.831 130.141 736.46 130.651 736.46 131.501C736.46 132.3 735.899 132.844 734.709 132.844H732.941ZM739.563 129.682C739.563 132.3 741.637 134.204 744.204 134.204C746.754 134.204 748.828 132.3 748.828 129.682C748.828 127.081 746.754 125.194 744.187 125.194C741.637 125.194 739.563 127.081 739.563 129.682ZM741.246 129.682C741.246 127.897 742.572 126.622 744.204 126.622C745.819 126.622 747.162 127.897 747.162 129.682C747.162 131.484 745.819 132.776 744.204 132.776C742.572 132.776 741.246 131.484 741.246 129.682ZM750.816 134H752.465V126.809H756.681V134H758.33V125.398H750.816V134ZM760.876 137.4H762.525V133.49C762.525 133.048 762.457 132.742 762.457 132.742H762.491C763.086 133.66 764.072 134.204 765.16 134.204C767.421 134.204 769.053 132.436 769.053 129.699C769.053 127.03 767.608 125.194 765.279 125.194C764.021 125.194 762.933 125.772 762.389 126.809H762.355C762.355 126.809 762.406 126.52 762.406 126.163V125.398H760.876V137.4ZM762.474 129.733C762.474 127.557 763.664 126.639 764.956 126.639C766.384 126.639 767.387 127.846 767.387 129.716C767.387 131.671 766.265 132.776 764.905 132.776C763.324 132.776 762.474 131.263 762.474 129.733ZM770.525 129.682C770.525 132.3 772.599 134.204 775.166 134.204C777.716 134.204 779.79 132.3 779.79 129.682C779.79 127.081 777.716 125.194 775.149 125.194C772.599 125.194 770.525 127.081 770.525 129.682ZM772.208 129.682C772.208 127.897 773.534 126.622 775.166 126.622C776.781 126.622 778.124 127.897 778.124 129.682C778.124 131.484 776.781 132.776 775.166 132.776C773.534 132.776 772.208 131.484 772.208 129.682ZM781.216 129.699C781.216 132.283 783.103 134.204 785.823 134.204C787.166 134.204 788.475 133.66 789.257 132.827L788.594 131.62C787.931 132.317 786.894 132.776 785.942 132.776C784.157 132.776 782.899 131.433 782.899 129.682C782.899 127.931 784.157 126.622 785.891 126.622C786.792 126.622 787.693 127.03 788.271 127.608L789.053 126.452C788.237 125.585 786.962 125.194 785.823 125.194C783.12 125.194 781.216 127.149 781.216 129.699ZM790.327 131.654C790.327 133.269 791.704 134.204 793.2 134.204C794.475 134.204 795.529 133.439 796.022 132.453H796.056C796.056 132.453 796.005 132.742 796.005 133.133V134H797.552V128.56C797.552 126.384 796.311 125.194 794.152 125.194C792.945 125.194 791.636 125.636 790.939 126.214L791.602 127.421C792.299 126.928 793.166 126.588 794.016 126.588C795.087 126.588 795.903 127.064 795.903 128.475V128.645H795.461C793.676 128.645 790.327 128.951 790.327 131.654ZM791.976 131.518C791.976 129.937 794.254 129.835 795.478 129.835H795.903V130.158C795.903 131.433 795.036 132.895 793.591 132.895C792.52 132.895 791.976 132.198 791.976 131.518ZM799.632 134H801.23L801.604 128.883C801.638 128.373 801.587 127.404 801.587 127.404H801.621C801.621 127.404 801.893 128.05 802.165 128.679L804.205 132.963H805.616L807.656 128.662C807.979 127.999 808.2 127.404 808.2 127.404H808.234C808.234 127.404 808.2 128.373 808.217 128.883L808.591 134H810.189L809.441 125.398H807.639L805.395 130.26C805.174 130.787 804.919 131.416 804.919 131.416H804.885C804.885 131.416 804.647 130.77 804.409 130.26L802.216 125.398H800.38L799.632 134ZM816.657 134H818.238L821.961 128.866C822.233 128.458 822.658 127.88 822.709 127.727H822.743C822.743 127.863 822.692 128.458 822.692 128.866V134H824.29V125.398H822.692L818.986 130.532C818.697 130.94 818.289 131.535 818.221 131.688H818.187C818.204 131.603 818.238 130.991 818.238 130.532V125.398H816.657V134ZM426.305 158H427.954V150.809H432.17V158H433.819V149.398H426.305V158ZM436.365 161.4H438.014V157.49C438.014 157.048 437.946 156.742 437.946 156.742H437.98C438.575 157.66 439.561 158.204 440.649 158.204C442.91 158.204 444.542 156.436 444.542 153.699C444.542 151.03 443.097 149.194 440.768 149.194C439.51 149.194 438.422 149.772 437.878 150.809H437.844C437.844 150.809 437.895 150.52 437.895 150.163V149.398H436.365V161.4ZM437.963 153.733C437.963 151.557 439.153 150.639 440.445 150.639C441.873 150.639 442.876 151.846 442.876 153.716C442.876 155.671 441.754 156.776 440.394 156.776C438.813 156.776 437.963 155.263 437.963 153.733ZM446.014 153.699C446.014 156.249 447.884 158.204 450.587 158.204C451.777 158.204 453.086 157.745 453.919 156.98L453.222 155.773C452.542 156.385 451.607 156.776 450.689 156.776C449.142 156.776 447.816 155.773 447.731 153.92H453.987C454.021 153.682 454.055 153.444 454.055 153.223C454.055 151.013 452.763 149.194 450.332 149.194C447.884 149.194 446.014 150.962 446.014 153.699ZM447.782 152.73C448.02 151.302 449.023 150.469 450.298 150.469C451.42 150.469 452.338 151.251 452.389 152.73H447.782ZM457.721 156.64C458.809 154.94 458.945 152.492 458.945 151.2V150.741H461.529V156.64H457.721ZM454.967 156.64V160.04H456.514V158H462.889V160.04H464.402V156.64H463.178V149.398H457.364V150.979C457.364 152.305 457.228 154.991 456.021 156.64H454.967ZM465.197 158.085C467.73 157.949 468.716 155.943 468.716 152.05V150.758H471.249V158H472.898V149.398H467.135V152.05C467.135 155.161 466.455 156.419 465.197 156.606V158.085ZM474.884 153.682C474.884 156.3 476.958 158.204 479.525 158.204C482.075 158.204 484.149 156.3 484.149 153.682C484.149 151.081 482.075 149.194 479.508 149.194C476.958 149.194 474.884 151.081 474.884 153.682ZM476.567 153.682C476.567 151.897 477.893 150.622 479.525 150.622C481.14 150.622 482.483 151.897 482.483 153.682C482.483 155.484 481.14 156.776 479.525 156.776C477.893 156.776 476.567 155.484 476.567 153.682ZM484.885 158H486.721L488.982 154.328H490.206V158H491.77V154.328H493.011L495.255 158H497.108L494.337 153.58V153.546L496.853 149.398H495.119L492.994 152.917H491.77V149.398H490.206V152.917H488.982L486.874 149.398H485.123L487.656 153.546V153.58L484.885 158ZM497.828 153.699C497.828 156.249 499.698 158.204 502.401 158.204C503.591 158.204 504.9 157.745 505.733 156.98L505.036 155.773C504.356 156.385 503.421 156.776 502.503 156.776C500.956 156.776 499.63 155.773 499.545 153.92H505.801C505.835 153.682 505.869 153.444 505.869 153.223C505.869 151.013 504.577 149.194 502.146 149.194C499.698 149.194 497.828 150.962 497.828 153.699ZM499.596 152.73C499.834 151.302 500.837 150.469 502.112 150.469C503.234 150.469 504.152 151.251 504.203 152.73H499.596ZM507.852 158H509.501V154.311H513.853V158H515.502V149.398H513.853V152.9H509.501V149.398H507.852V158ZM518.045 158H519.626L523.349 152.866C523.621 152.458 524.046 151.88 524.097 151.727H524.131C524.131 151.863 524.08 152.458 524.08 152.866V158H525.678V149.398H524.08L520.374 154.532C520.085 154.94 519.677 155.535 519.609 155.688H519.575C519.592 155.603 519.626 154.991 519.626 154.532V149.398H518.045V158ZM527.338 158H529.157L531.265 154.889H532.71V158H534.359V149.398H530.925C529.106 149.398 527.848 150.333 527.848 152.101C527.848 153.41 528.732 154.328 529.718 154.6V154.617C529.718 154.617 529.514 154.838 529.327 155.144L527.338 158ZM531.282 153.682C530.279 153.682 529.514 153.155 529.514 152.084C529.514 150.979 530.228 150.537 531.333 150.537H532.71V153.682H531.282ZM536.547 158H538.145L538.519 152.883C538.553 152.373 538.502 151.404 538.502 151.404H538.536C538.536 151.404 538.808 152.05 539.08 152.679L541.12 156.963H542.531L544.571 152.662C544.894 151.999 545.115 151.404 545.115 151.404H545.149C545.149 151.404 545.115 152.373 545.132 152.883L545.506 158H547.104L546.356 149.398H544.554L542.31 154.26C542.089 154.787 541.834 155.416 541.834 155.416H541.8C541.8 155.416 541.562 154.77 541.324 154.26L539.131 149.398H537.295L536.547 158ZM549.237 158H551.005V156.215H549.237V158ZM558.029 158H562.33C564.438 158 566.206 156.844 566.206 154.583C566.206 153.24 565.492 152.05 564.217 151.676V151.642C565.135 151.166 565.713 150.231 565.713 149.058C565.713 147.12 564.268 145.998 562.228 145.998H558.029V158ZM559.712 151.047V147.46H562.211C563.35 147.46 563.996 148.174 563.996 149.228C563.996 150.282 563.316 151.047 562.228 151.047H559.712ZM559.712 156.538V152.441H562.415C563.673 152.441 564.472 153.274 564.472 154.481C564.472 155.722 563.707 156.538 562.415 156.538H559.712ZM576.034 158H577.683V149.398H576.034V158ZM568.248 158H571.563C573.722 158 574.708 156.895 574.708 155.28C574.708 153.325 573.365 152.509 571.58 152.509H569.897V149.398H568.248V158ZM569.897 156.81V153.699H571.325C572.515 153.699 573.042 154.345 573.042 155.263C573.042 156.164 572.532 156.81 571.342 156.81H569.897ZM579.86 153.053C579.86 156.028 581.169 158.204 584.076 158.204C586.507 158.204 588.139 156.504 588.139 154.124C588.139 151.693 586.643 150.163 584.484 150.163C583.345 150.163 582.206 150.537 581.441 151.693H581.407C581.526 150.044 582.342 149.041 584.059 148.259L587.357 146.882L586.813 145.522L583.736 146.848C580.744 148.106 579.86 149.976 579.86 153.053ZM581.577 154.124C581.577 152.611 582.614 151.472 584.076 151.472C585.368 151.472 586.473 152.475 586.473 154.158C586.473 155.824 585.368 156.81 584.008 156.81C582.682 156.81 581.577 155.824 581.577 154.124ZM589.634 153.699C589.634 156.249 591.504 158.204 594.207 158.204C595.397 158.204 596.706 157.745 597.539 156.98L596.842 155.773C596.162 156.385 595.227 156.776 594.309 156.776C592.762 156.776 591.436 155.773 591.351 153.92H597.607C597.641 153.682 597.675 153.444 597.675 153.223C597.675 151.013 596.383 149.194 593.952 149.194C591.504 149.194 589.634 150.962 589.634 153.699ZM591.402 152.73C591.64 151.302 592.643 150.469 593.918 150.469C595.04 150.469 595.958 151.251 596.009 152.73H591.402ZM599.658 161.4H601.307V157.49C601.307 157.048 601.239 156.742 601.239 156.742H601.273C601.868 157.66 602.854 158.204 603.942 158.204C606.203 158.204 607.835 156.436 607.835 153.699C607.835 151.03 606.39 149.194 604.061 149.194C602.803 149.194 601.715 149.772 601.171 150.809H601.137C601.137 150.809 601.188 150.52 601.188 150.163V149.398H599.658V161.4ZM601.256 153.733C601.256 151.557 602.446 150.639 603.738 150.639C605.166 150.639 606.169 151.846 606.169 153.716C606.169 155.671 605.047 156.776 603.687 156.776C602.106 156.776 601.256 155.263 601.256 153.733ZM609.868 158H611.449L615.172 152.866C615.444 152.458 615.869 151.88 615.92 151.727H615.954C615.954 151.863 615.903 152.458 615.903 152.866V158H617.501V149.398H615.903L612.197 154.532C611.908 154.94 611.5 155.535 611.432 155.688H611.398C611.415 155.603 611.449 154.991 611.449 154.532V149.398H609.868V158ZM622.102 158H623.734V150.809H626.743V149.398H619.11V150.809H622.102V158ZM627.519 153.699C627.519 156.249 629.389 158.204 632.092 158.204C633.282 158.204 634.591 157.745 635.424 156.98L634.727 155.773C634.047 156.385 633.112 156.776 632.194 156.776C630.647 156.776 629.321 155.773 629.236 153.92H635.492C635.526 153.682 635.56 153.444 635.56 153.223C635.56 151.013 634.268 149.194 631.837 149.194C629.389 149.194 627.519 150.962 627.519 153.699ZM629.287 152.73C629.525 151.302 630.528 150.469 631.803 150.469C632.925 150.469 633.843 151.251 633.894 152.73H629.287ZM641.368 159.785L640.79 161.043C640.79 161.043 641.487 161.57 642.439 161.57C643.646 161.57 644.717 160.89 645.227 159.547L649.273 149.398H647.488L645.397 155.042C645.244 155.484 645.108 156.062 645.108 156.062H645.074C645.074 156.062 644.921 155.45 644.751 155.025L642.592 149.398H640.739L644.343 157.898L643.918 158.884C643.595 159.666 643.034 160.159 642.354 160.159C641.844 160.159 641.368 159.785 641.368 159.785ZM651.959 156.64C653.047 154.94 653.183 152.492 653.183 151.2V150.741H655.767V156.64H651.959ZM649.205 156.64V160.04H650.752V158H657.127V160.04H658.64V156.64H657.416V149.398H651.602V150.979C651.602 152.305 651.466 154.991 650.259 156.64H649.205ZM659.71 153.682C659.71 156.3 661.784 158.204 664.351 158.204C666.901 158.204 668.975 156.3 668.975 153.682C668.975 151.081 666.901 149.194 664.334 149.194C661.784 149.194 659.71 151.081 659.71 153.682ZM661.393 153.682C661.393 151.897 662.719 150.622 664.351 150.622C665.966 150.622 667.309 151.897 667.309 153.682C667.309 155.484 665.966 156.776 664.351 156.776C662.719 156.776 661.393 155.484 661.393 153.682ZM670.588 153.053C670.588 156.028 671.897 158.204 674.804 158.204C677.235 158.204 678.867 156.504 678.867 154.124C678.867 151.693 677.371 150.163 675.212 150.163C674.073 150.163 672.934 150.537 672.169 151.693H672.135C672.254 150.044 673.07 149.041 674.787 148.259L678.085 146.882L677.541 145.522L674.464 146.848C671.472 148.106 670.588 149.976 670.588 153.053ZM672.305 154.124C672.305 152.611 673.342 151.472 674.804 151.472C676.096 151.472 677.201 152.475 677.201 154.158C677.201 155.824 676.096 156.81 674.736 156.81C673.41 156.81 672.305 155.824 672.305 154.124ZM680.923 158H682.572V154.311H686.924V158H688.573V149.398H686.924V152.9H682.572V149.398H680.923V158ZM698.902 158H700.551V149.398H698.902V158ZM691.116 158H694.431C696.59 158 697.576 156.895 697.576 155.28C697.576 153.325 696.233 152.509 694.448 152.509H692.765V149.398H691.116V158ZM692.765 156.81V153.699H694.193C695.383 153.699 695.91 154.345 695.91 155.263C695.91 156.164 695.4 156.81 694.21 156.81H692.765ZM706.894 148.412C708.22 148.412 709.41 147.63 709.41 146.236V145.981H708.101V146.202C708.101 146.967 707.489 147.341 706.894 147.341C706.299 147.341 705.704 146.967 705.704 146.219V145.981H704.378V146.236C704.378 147.63 705.585 148.412 706.894 148.412ZM703.103 158H704.684L708.407 152.866C708.679 152.458 709.104 151.88 709.155 151.727H709.189C709.189 151.863 709.138 152.458 709.138 152.866V158H710.736V149.398H709.138L705.432 154.532C705.143 154.94 704.735 155.535 704.667 155.688H704.633C704.65 155.603 704.684 154.991 704.684 154.532V149.398H703.103V158ZM716.952 153.699C716.952 156.283 718.839 158.204 721.559 158.204C722.902 158.204 724.211 157.66 724.993 156.827L724.33 155.62C723.667 156.317 722.63 156.776 721.678 156.776C719.893 156.776 718.635 155.433 718.635 153.682C718.635 151.931 719.893 150.622 721.627 150.622C722.528 150.622 723.429 151.03 724.007 151.608L724.789 150.452C723.973 149.585 722.698 149.194 721.559 149.194C718.856 149.194 716.952 151.149 716.952 153.699ZM726.776 158H728.425V150.809H732.641V158H734.29V149.398H726.776V158ZM736.276 153.682C736.276 156.3 738.35 158.204 740.917 158.204C743.467 158.204 745.541 156.3 745.541 153.682C745.541 151.081 743.467 149.194 740.9 149.194C738.35 149.194 736.276 151.081 736.276 153.682ZM737.959 153.682C737.959 151.897 739.285 150.622 740.917 150.622C742.532 150.622 743.875 151.897 743.875 153.682C743.875 155.484 742.532 156.776 740.917 156.776C739.285 156.776 737.959 155.484 737.959 153.682ZM746.967 153.699C746.967 156.283 748.854 158.204 751.574 158.204C752.917 158.204 754.226 157.66 755.008 156.827L754.345 155.62C753.682 156.317 752.645 156.776 751.693 156.776C749.908 156.776 748.65 155.433 748.65 153.682C748.65 151.931 749.908 150.622 751.642 150.622C752.543 150.622 753.444 151.03 754.022 151.608L754.804 150.452C753.988 149.585 752.713 149.194 751.574 149.194C748.871 149.194 746.967 151.149 746.967 153.699ZM756.032 153.682C756.032 156.3 758.106 158.204 760.673 158.204C763.223 158.204 765.297 156.3 765.297 153.682C765.297 151.081 763.223 149.194 760.656 149.194C758.106 149.194 756.032 151.081 756.032 153.682ZM757.715 153.682C757.715 151.897 759.041 150.622 760.673 150.622C762.288 150.622 763.631 151.897 763.631 153.682C763.631 155.484 762.288 156.776 760.673 156.776C759.041 156.776 757.715 155.484 757.715 153.682ZM766.91 153.053C766.91 156.028 768.219 158.204 771.126 158.204C773.557 158.204 775.189 156.504 775.189 154.124C775.189 151.693 773.693 150.163 771.534 150.163C770.395 150.163 769.256 150.537 768.491 151.693H768.457C768.576 150.044 769.392 149.041 771.109 148.259L774.407 146.882L773.863 145.522L770.786 146.848C767.794 148.106 766.91 149.976 766.91 153.053ZM768.627 154.124C768.627 152.611 769.664 151.472 771.126 151.472C772.418 151.472 773.523 152.475 773.523 154.158C773.523 155.824 772.418 156.81 771.058 156.81C769.732 156.81 768.627 155.824 768.627 154.124Z" fill="white"/>
<rect x="436" y="204" width="160" height="48" rx="12" fill="white"/>
<path d="M489.715 233H491.65V224.015H496.405V233H498.34V222.35H489.715V233ZM500.025 229.175C500.025 231.53 501.9 233.18 504.225 233.18C506.55 233.18 508.425 231.53 508.425 229.175C508.425 226.835 506.55 225.17 504.21 225.17C501.9 225.17 500.025 226.835 500.025 229.175ZM501.96 229.175C501.96 227.765 502.98 226.79 504.225 226.79C505.47 226.79 506.505 227.765 506.505 229.175C506.505 230.6 505.47 231.56 504.225 231.56C502.98 231.56 501.96 230.6 501.96 229.175ZM509.131 232.055C509.836 232.715 510.931 233.18 512.086 233.18C513.751 233.18 515.101 232.37 515.101 230.78C515.101 229.835 514.501 229.28 513.811 229.025V228.995C514.351 228.74 514.861 228.215 514.861 227.27C514.861 225.92 513.676 225.17 512.176 225.17C510.901 225.17 509.986 225.56 509.356 226.025L509.971 227.24C510.646 226.79 511.246 226.61 511.816 226.61C512.581 226.61 512.956 226.955 512.956 227.525C512.956 228.17 512.446 228.41 511.771 228.41H510.991V229.73H511.921C512.836 229.73 513.196 230.09 513.196 230.675C513.196 231.32 512.686 231.71 511.876 231.71C511.081 231.71 510.346 231.23 509.941 230.84L509.131 232.055ZM516.691 233H520.321C521.926 233 523.171 232.31 523.171 230.78C523.171 230.015 522.736 229.265 521.821 229.025V229.01C522.466 228.695 522.826 228.035 522.826 227.33C522.826 226.04 521.791 225.35 520.246 225.35H516.691V233ZM518.596 228.5V226.595H519.811C520.561 226.595 520.906 226.94 520.906 227.495C520.906 228.08 520.561 228.5 519.841 228.5H518.596ZM518.596 231.74V229.685H519.991C520.816 229.685 521.251 230.105 521.251 230.72C521.251 231.305 520.846 231.74 519.991 231.74H518.596ZM524.298 229.175C524.298 231.53 526.173 233.18 528.498 233.18C530.823 233.18 532.698 231.53 532.698 229.175C532.698 226.835 530.823 225.17 528.483 225.17C526.173 225.17 524.298 226.835 524.298 229.175ZM526.233 229.175C526.233 227.765 527.253 226.79 528.498 226.79C529.743 226.79 530.778 227.765 530.778 229.175C530.778 230.6 529.743 231.56 528.498 231.56C527.253 231.56 526.233 230.6 526.233 229.175ZM534.27 233H536.175V229.91H539.445V233H541.35V225.35H539.445V228.305H536.175V225.35H534.27V233ZM543.395 233H545.24L548.075 228.92C548.27 228.62 548.555 228.215 548.645 228.005H548.675C548.66 228.2 548.63 228.635 548.63 228.92V233H550.445V225.35H548.6L545.765 229.445C545.57 229.745 545.285 230.165 545.195 230.36H545.165C545.18 230.24 545.21 229.79 545.21 229.445V225.35H543.395V233ZM554.277 233H556.167V226.97H558.702V225.35H551.757V226.97H554.277V233ZM559.992 233H563.307C565.317 233 566.202 231.995 566.202 230.51C566.202 228.845 565.122 227.975 563.322 227.975H561.897V225.35H559.992V233ZM561.897 231.695V229.265H562.977C563.877 229.265 564.282 229.79 564.282 230.495C564.282 231.185 563.877 231.695 563.007 231.695H561.897Z" fill="#1A1A1A"/>
<path d="M477.894 222.554L476.214 220.875C476.095 220.756 475.954 220.662 475.799 220.598C475.644 220.533 475.478 220.5 475.31 220.5C474.967 220.5 474.646 220.634 474.404 220.875L472.596 222.683C472.477 222.802 472.383 222.943 472.318 223.098C472.254 223.253 472.221 223.42 472.221 223.588C472.221 223.93 472.355 224.252 472.596 224.493L473.918 225.815C473.609 226.497 473.179 227.118 472.648 227.647C472.119 228.178 471.499 228.61 470.817 228.922L469.495 227.6C469.376 227.48 469.235 227.386 469.08 227.322C468.925 227.257 468.759 227.224 468.591 227.224C468.248 227.224 467.926 227.358 467.685 227.6L465.875 229.406C465.756 229.525 465.662 229.666 465.597 229.821C465.533 229.977 465.5 230.143 465.5 230.312C465.5 230.654 465.634 230.976 465.875 231.217L467.553 232.894C467.937 233.281 468.469 233.5 469.015 233.5C469.13 233.5 469.241 233.491 469.349 233.472C471.476 233.121 473.585 231.99 475.288 230.289C476.988 228.59 478.118 226.483 478.473 224.35C478.58 223.698 478.364 223.027 477.894 222.554Z" fill="#1A1A1A"/>
<rect x="604" y="204" width="160" height="48" rx="12" fill="white"/>
<path d="M674.707 233H676.642V224.015H681.397V233H683.332V222.35H674.707V233ZM685.017 229.175C685.017 231.53 686.892 233.18 689.217 233.18C691.542 233.18 693.417 231.53 693.417 229.175C693.417 226.835 691.542 225.17 689.202 225.17C686.892 225.17 685.017 226.835 685.017 229.175ZM686.952 229.175C686.952 227.765 687.972 226.79 689.217 226.79C690.462 226.79 691.497 227.765 691.497 229.175C691.497 230.6 690.462 231.56 689.217 231.56C687.972 231.56 686.952 230.6 686.952 229.175ZM697.119 230.465C697.944 230.465 698.724 230.225 699.189 229.97H699.219C699.219 229.97 699.204 230.195 699.204 230.39V233H701.094V225.35H699.204V228.395C698.904 228.605 698.379 228.875 697.719 228.875C696.714 228.875 696.414 228.32 696.414 227.6V225.35H694.539V227.915C694.539 229.7 695.649 230.465 697.119 230.465ZM704.933 233H706.823V226.97H709.358V225.35H702.413V226.97H704.933V233ZM709.976 230.885C709.976 232.28 711.116 233.18 712.496 233.18C713.531 233.18 714.446 232.61 714.911 231.8H714.941C714.941 231.8 714.896 232.04 714.896 232.355V233H716.666V228.215C716.666 226.28 715.481 225.17 713.486 225.17C712.346 225.17 711.116 225.605 710.486 226.115L711.191 227.48C711.806 227.06 712.571 226.745 713.321 226.745C714.116 226.745 714.761 227.09 714.761 228.095V228.2H714.431C712.736 228.2 709.976 228.59 709.976 230.885ZM711.866 230.72C711.866 229.64 713.486 229.505 714.446 229.505H714.776V229.715C714.776 230.645 714.086 231.725 713.021 231.725C712.256 231.725 711.866 231.23 711.866 230.72Z" fill="#1A1A1A"/>
<path d="M665 224.854V230.885C665 231.446 664.77 231.984 664.359 232.38C663.949 232.777 663.393 233 662.812 233H653.188C652.607 233 652.051 232.777 651.641 232.38C651.23 231.984 651 231.446 651 230.885V224.854L657.778 228.711C657.845 228.749 657.922 228.77 658 228.77C658.078 228.77 658.155 228.749 658.222 228.711L665 224.854ZM662.812 222C663.351 222 663.87 222.192 664.271 222.539C664.672 222.886 664.927 223.364 664.987 223.881L658 227.855L651.013 223.881C651.073 223.364 651.328 222.886 651.729 222.539C652.13 222.192 652.649 222 653.188 222H662.812Z" fill="#1A1A1A"/>
<rect x="268" y="204" width="160" height="48" rx="12" fill="white"/>
<path fill-rule="evenodd" clip-rule="evenodd" d="M307 227.095C307 230.461 303.866 233.189 300 233.189C299.307 233.19 298.616 233.101 297.946 232.923C297.435 233.18 296.262 233.675 294.288 233.997C294.113 234.025 293.98 233.844 294.049 233.682C294.359 232.954 294.639 231.984 294.723 231.1C293.651 230.029 293 228.627 293 227.095C293 223.729 296.134 221 300 221C303.866 221 307 223.729 307 227.095ZM297.375 227.095C297.375 227.325 297.283 227.547 297.119 227.71C296.955 227.874 296.732 227.965 296.5 227.965C296.268 227.965 296.045 227.874 295.881 227.71C295.717 227.547 295.625 227.325 295.625 227.095C295.625 226.864 295.717 226.642 295.881 226.479C296.045 226.316 296.268 226.224 296.5 226.224C296.732 226.224 296.955 226.316 297.119 226.479C297.283 226.642 297.375 226.864 297.375 227.095ZM300.875 227.095C300.875 227.325 300.783 227.547 300.619 227.71C300.455 227.874 300.232 227.965 300 227.965C299.768 227.965 299.545 227.874 299.381 227.71C299.217 227.547 299.125 227.325 299.125 227.095C299.125 226.864 299.217 226.642 299.381 226.479C299.545 226.316 299.768 226.224 300 226.224C300.232 226.224 300.455 226.316 300.619 226.479C300.783 226.642 300.875 226.864 300.875 227.095ZM303.5 227.965C303.732 227.965 303.955 227.874 304.119 227.71C304.283 227.547 304.375 227.325 304.375 227.095C304.375 226.864 304.283 226.642 304.119 226.479C303.955 226.316 303.732 226.224 303.5 226.224C303.268 226.224 303.045 226.316 302.881 226.479C302.717 226.642 302.625 226.864 302.625 227.095C302.625 227.325 302.717 227.547 302.881 227.71C303.045 227.874 303.268 227.965 303.5 227.965Z" fill="#1A1A1A"/>
<path d="M316.042 227.6C316.042 230.735 318.412 233.18 321.547 233.18C324.682 233.18 327.052 230.735 327.052 227.6C327.052 224.555 324.682 222.17 321.547 222.17C318.412 222.17 316.042 224.555 316.042 227.6ZM318.037 227.6C318.037 225.53 319.597 223.94 321.547 223.94C323.497 223.94 325.057 225.53 325.057 227.6C325.057 229.76 323.497 231.41 321.547 231.41C319.597 231.41 318.037 229.76 318.037 227.6ZM328.634 233H330.539V229.91H333.809V233H335.714V225.35H333.809V228.305H330.539V225.35H328.634V233ZM337.04 233.075C339.575 233 340.46 231.08 340.46 227.75V226.895H342.32V233H344.225V225.35H338.645V227.75C338.645 230.465 337.985 231.26 337.04 231.395V233.075ZM345.685 230.885C345.685 232.28 346.825 233.18 348.205 233.18C349.24 233.18 350.155 232.61 350.62 231.8H350.65C350.65 231.8 350.605 232.04 350.605 232.355V233H352.375V228.215C352.375 226.28 351.19 225.17 349.195 225.17C348.055 225.17 346.825 225.605 346.195 226.115L346.9 227.48C347.515 227.06 348.28 226.745 349.03 226.745C349.825 226.745 350.47 227.09 350.47 228.095V228.2H350.14C348.445 228.2 345.685 228.59 345.685 230.885ZM347.575 230.72C347.575 229.64 349.195 229.505 350.155 229.505H350.485V229.715C350.485 230.645 349.795 231.725 348.73 231.725C347.965 231.725 347.575 231.23 347.575 230.72ZM357.837 224.615C359.142 224.615 360.297 223.865 360.297 222.545V222.35H358.857V222.53C358.857 223.19 358.332 223.49 357.837 223.49C357.342 223.49 356.832 223.19 356.832 222.545V222.35H355.377V222.545C355.377 223.865 356.532 224.615 357.837 224.615ZM354.312 233H356.157L358.992 228.92C359.187 228.62 359.472 228.215 359.562 228.005H359.592C359.577 228.2 359.547 228.635 359.547 228.92V233H361.362V225.35H359.517L356.682 229.445C356.487 229.745 356.202 230.165 356.112 230.36H356.082C356.097 230.24 356.127 229.79 356.127 229.445V225.35H354.312V233ZM363.409 233H365.314V229.91H368.584V233H370.489V225.35H368.584V228.305H365.314V225.35H363.409V233ZM372.505 229.55H377.005V227.885H372.505V229.55ZM381.14 230.465C381.965 230.465 382.745 230.225 383.21 229.97H383.24C383.24 229.97 383.225 230.195 383.225 230.39V233H385.115V225.35H383.225V228.395C382.925 228.605 382.4 228.875 381.74 228.875C380.735 228.875 380.435 228.32 380.435 227.6V225.35H378.56V227.915C378.56 229.7 379.67 230.465 381.14 230.465ZM386.584 230.885C386.584 232.28 387.724 233.18 389.104 233.18C390.139 233.18 391.054 232.61 391.519 231.8H391.549C391.549 231.8 391.504 232.04 391.504 232.355V233H393.274V228.215C393.274 226.28 392.089 225.17 390.094 225.17C388.954 225.17 387.724 225.605 387.094 226.115L387.799 227.48C388.414 227.06 389.179 226.745 389.929 226.745C390.724 226.745 391.369 227.09 391.369 228.095V228.2H391.039C389.344 228.2 386.584 228.59 386.584 230.885ZM388.474 230.72C388.474 229.64 390.094 229.505 391.054 229.505H391.384V229.715C391.384 230.645 390.694 231.725 389.629 231.725C388.864 231.725 388.474 231.23 388.474 230.72ZM396.923 233H398.813V226.97H401.348V225.35H394.403V226.97H396.923V233Z" fill="#1A1A1A"/>
<rect x="772" y="204" width="160" height="48" rx="12" fill="white"/>
<path d="M813.158 227.6C813.158 230.735 815.528 233.18 818.663 233.18C821.798 233.18 824.168 230.735 824.168 227.6C824.168 224.555 821.798 222.17 818.663 222.17C815.528 222.17 813.158 224.555 813.158 227.6ZM815.153 227.6C815.153 225.53 816.713 223.94 818.663 223.94C820.613 223.94 822.173 225.53 822.173 227.6C822.173 229.76 820.613 231.41 818.663 231.41C816.713 231.41 815.153 229.76 815.153 227.6ZM827.637 233H829.527V226.97H832.062V225.35H825.117V226.97H827.637V233ZM832.662 232.055C833.367 232.715 834.462 233.18 835.617 233.18C837.282 233.18 838.632 232.37 838.632 230.78C838.632 229.835 838.032 229.28 837.342 229.025V228.995C837.882 228.74 838.392 228.215 838.392 227.27C838.392 225.92 837.207 225.17 835.707 225.17C834.432 225.17 833.517 225.56 832.887 226.025L833.502 227.24C834.177 226.79 834.777 226.61 835.347 226.61C836.112 226.61 836.487 226.955 836.487 227.525C836.487 228.17 835.977 228.41 835.302 228.41H834.522V229.73H835.452C836.367 229.73 836.727 230.09 836.727 230.675C836.727 231.32 836.217 231.71 835.407 231.71C834.612 231.71 833.877 231.23 833.472 230.84L832.662 232.055ZM847.422 233H849.327V225.35H847.422V233ZM840.222 233H843.477C845.487 233 846.372 231.995 846.372 230.51C846.372 228.845 845.292 227.975 843.492 227.975H842.127V225.35H840.222V233ZM842.127 231.695V229.265H843.147C844.047 229.265 844.452 229.79 844.452 230.495C844.452 231.185 844.047 231.695 843.177 231.695H842.127ZM851.37 233H855C856.605 233 857.85 232.31 857.85 230.78C857.85 230.015 857.415 229.265 856.5 229.025V229.01C857.145 228.695 857.505 228.035 857.505 227.33C857.505 226.04 856.47 225.35 854.925 225.35H851.37V233ZM853.275 228.5V226.595H854.49C855.24 226.595 855.585 226.94 855.585 227.495C855.585 228.08 855.24 228.5 854.52 228.5H853.275ZM853.275 231.74V229.685H854.67C855.495 229.685 855.93 230.105 855.93 230.72C855.93 231.305 855.525 231.74 854.67 231.74H853.275ZM862.726 229.175C862.726 231.53 864.601 233.18 866.926 233.18C869.251 233.18 871.126 231.53 871.126 229.175C871.126 226.835 869.251 225.17 866.911 225.17C864.601 225.17 862.726 226.835 862.726 229.175ZM864.661 229.175C864.661 227.765 865.681 226.79 866.926 226.79C868.171 226.79 869.206 227.765 869.206 229.175C869.206 230.6 868.171 231.56 866.926 231.56C865.681 231.56 864.661 230.6 864.661 229.175ZM875.983 229.175C875.983 231.395 877.603 233.18 880.138 233.18C881.368 233.18 882.568 232.7 883.288 231.935L882.553 230.585C881.983 231.14 881.113 231.56 880.303 231.56C878.833 231.56 877.918 230.45 877.918 229.16C877.918 227.855 878.833 226.79 880.243 226.79C880.993 226.79 881.743 227.135 882.223 227.615L883.078 226.31C882.343 225.515 881.173 225.17 880.138 225.17C877.603 225.17 875.983 227 875.983 229.175ZM884.081 230.885C884.081 232.28 885.221 233.18 886.601 233.18C887.636 233.18 888.551 232.61 889.016 231.8H889.046C889.046 231.8 889.001 232.04 889.001 232.355V233H890.771V228.215C890.771 226.28 889.586 225.17 887.591 225.17C886.451 225.17 885.221 225.605 884.591 226.115L885.296 227.48C885.911 227.06 886.676 226.745 887.426 226.745C888.221 226.745 888.866 227.09 888.866 228.095V228.2H888.536C886.841 228.2 884.081 228.59 884.081 230.885ZM885.971 230.72C885.971 229.64 887.591 229.505 888.551 229.505H888.881V229.715C888.881 230.645 888.191 231.725 887.126 231.725C886.361 231.725 885.971 231.23 885.971 230.72ZM896.233 224.615C897.538 224.615 898.693 223.865 898.693 222.545V222.35H897.253V222.53C897.253 223.19 896.728 223.49 896.233 223.49C895.738 223.49 895.228 223.19 895.228 222.545V222.35H893.773V222.545C893.773 223.865 894.928 224.615 896.233 224.615ZM892.708 233H894.553L897.388 228.92C897.583 228.62 897.868 228.215 897.958 228.005H897.988C897.973 228.2 897.943 228.635 897.943 228.92V233H899.758V225.35H897.913L895.078 229.445C894.883 229.745 894.598 230.165 894.508 230.36H894.478C894.493 230.24 894.523 229.79 894.523 229.445V225.35H892.708V233ZM903.589 233H905.479V226.97H908.014V225.35H901.069V226.97H903.589V233ZM908.649 229.175C908.649 231.35 910.239 233.18 912.774 233.18C913.869 233.18 915.069 232.775 915.849 232.085L915.099 230.72C914.484 231.215 913.689 231.56 912.909 231.56C911.754 231.56 910.734 230.87 910.614 229.535H915.879C915.909 229.295 915.939 229.04 915.939 228.8C915.939 226.775 914.739 225.17 912.549 225.17C910.254 225.17 908.649 226.82 908.649 229.175ZM910.659 228.23C910.839 227.255 911.529 226.61 912.504 226.61C913.359 226.61 914.019 227.21 914.034 228.23H910.659Z" fill="#1A1A1A"/>
<path fill-rule="evenodd" clip-rule="evenodd" d="M797.81 223.831C797.488 223.841 797.18 223.694 796.985 223.438L794.936 220.748C794.406 220.052 793.313 220.234 793.037 221.064L791.972 224.272C791.87 224.578 791.626 224.817 791.318 224.912L788.039 225.926C787.156 226.198 786.994 227.378 787.77 227.879L790.458 229.617C790.748 229.804 790.92 230.128 790.915 230.473L790.863 233.643C790.848 234.537 791.858 235.066 792.584 234.546L795.466 232.481C795.718 232.301 796.039 232.247 796.336 232.336L799.73 233.356C800.587 233.613 801.371 232.785 801.067 231.944L799.99 228.962C799.873 228.637 799.932 228.275 800.145 228.004L802.126 225.489C802.697 224.763 802.161 223.7 801.238 223.728L797.81 223.831Z" fill="#1A1A1A"/>
</g>
<defs>
<clipPath id="clip0_1_165">
<rect width="1200" height="306" rx="40" fill="white"/>
</clipPath>
</defs>
</svg>
